<?xml version="1.0" standalone="no"?>
<!DOCTYPE svg PUBLIC "-//W3C//DTD SVG 20010904//EN"
 "http://www.w3.org/TR/2001/REC-SVG-20010904/DTD/svg10.dtd">
<svg version="1.0" xmlns="http://www.w3.org/2000/svg"
 width="854.000000pt" height="1280.000000pt" viewBox="0 0 854.000000 1280.000000"
 preserveAspectRatio="xMidYMid meet">
<g transform="translate(0.000000,1280.000000) scale(0.100000,-0.100000)"
fill="#9c27b0" stroke="none">
<path d="M3440 12789 c-25 -5 -70 -14 -100 -20 -221 -42 -459 -172 -710 -385
-215 -182 -565 -552 -729 -771 -155 -206 -214 -343 -232 -535 -13 -147 -49
-270 -144 -493 -43 -99 -110 -280 -151 -402 -48 -146 -104 -289 -162 -416
-106 -227 -137 -322 -151 -449 -6 -51 -19 -160 -30 -243 -27 -205 -42 -392
-44 -550 -2 -155 2 -165 60 -147 21 6 41 8 46 3 5 -5 -25 -41 -65 -82 -65 -65
-71 -73 -50 -77 34 -5 50 -39 61 -132 27 -211 34 -539 28 -1337 -7 -941 -11
-888 93 -1098 105 -213 95 -283 95 653 1 808 8 1042 36 1095 10 17 12 17 28 3
24 -21 39 -97 46 -231 12 -202 42 -255 170 -294 101 -31 124 -47 147 -98 54
-121 7 -407 -143 -868 -76 -235 -143 -415 -176 -477 -14 -26 -23 -54 -20 -62
4 -9 27 -25 52 -37 59 -28 95 -71 95 -114 0 -27 -12 -47 -64 -103 -85 -92 -99
-116 -106 -171 -5 -42 -7 -46 -30 -43 -14 2 -54 4 -90 5 -88 3 -126 -17 -230
-122 -89 -89 -175 -211 -376 -536 -167 -270 -262 -382 -346 -407 -22 -6 -42
-17 -45 -24 -2 -7 9 -44 26 -82 43 -98 41 -118 -9 -113 -30 3 -123 -179 -160
-311 -27 -96 -60 -303 -60 -375 0 -31 4 -82 10 -112 5 -31 19 -115 30 -186 48
-303 123 -536 397 -1225 61 -151 118 -299 129 -328 16 -47 21 -53 42 -49 24 5
52 -15 52 -37 0 -7 -9 -24 -19 -37 -21 -27 -19 -61 4 -114 22 -50 73 -263 86
-363 14 -108 7 -252 -16 -332 -9 -30 -17 -62 -18 -70 -5 -40 170 -56 793 -71
696 -17 2685 -23 3560 -10 1144 16 1301 21 1306 36 7 18 -130 307 -331 695
-95 184 -298 580 -450 880 -393 771 -536 1035 -647 1197 -62 89 -67 94 -126
104 -26 5 -96 34 -157 64 -90 45 -125 57 -190 66 -164 21 -211 47 -252 136
-47 103 -2 114 83 19 32 -36 62 -63 66 -60 4 3 8 26 8 52 0 53 25 110 55 126
29 16 35 27 35 68 0 47 33 73 79 63 35 -7 55 -28 76 -78 22 -54 71 -131 134
-215 45 -59 57 -69 59 -52 10 60 -46 215 -122 339 -48 79 -51 89 -49 145 2 73
50 240 202 706 160 492 164 500 257 546 98 48 232 34 589 -61 94 -25 221 -59
284 -75 63 -17 146 -33 185 -37 61 -5 77 -2 111 16 47 25 64 26 110 7 37 -16
75 -67 75 -102 0 -28 26 -50 77 -63 75 -20 173 -115 147 -141 -7 -7 -24 -6
-53 5 -61 21 -65 19 -40 -16 32 -45 94 -86 142 -94 53 -9 67 -20 67 -54 0 -33
30 -82 138 -224 137 -179 184 -294 361 -867 159 -514 304 -938 431 -1255 62
-154 88 -209 129 -273 21 -32 47 -101 71 -184 119 -414 530 -1429 574 -1415
17 5 55 89 56 123 0 39 -25 100 -56 137 -21 25 -23 37 -22 105 3 86 -7 112
-73 196 -47 58 -48 70 -10 64 35 -5 35 -6 -30 77 -85 109 -129 195 -100 195 4
0 28 -15 52 -34 23 -19 46 -33 50 -30 8 4 -6 65 -23 99 -5 11 -26 34 -45 51
-33 29 -36 37 -44 110 -10 93 -15 115 -77 299 -25 77 -75 196 -109 265 -52
101 -66 138 -74 200 -16 114 -40 203 -155 553 -268 821 -324 1049 -374 1512
-32 300 -50 396 -81 431 -22 24 -24 50 -4 84 19 33 19 146 0 201 -8 24 -40 94
-70 154 -64 125 -66 140 -51 370 10 155 4 195 -59 351 -77 192 -86 257 -115
900 -26 570 -44 793 -90 1094 -32 214 -41 316 -50 615 -6 175 -15 314 -23 351
-8 33 -35 113 -61 178 -26 64 -65 186 -86 271 -45 179 -82 277 -150 395 -95
164 -137 296 -176 553 -68 458 -168 828 -283 1058 -166 329 -551 898 -825
1218 -122 143 -308 292 -461 370 -114 57 -222 85 -540 141 -279 48 -570 100
-676 120 -65 12 -146 11 -209 -1z m-215 -703 c18 -8 64 -38 101 -66 81 -62
129 -86 206 -100 99 -19 179 -88 236 -203 23 -47 26 -62 24 -157 -1 -57 3
-118 8 -136 8 -23 46 -61 138 -135 255 -206 292 -247 279 -302 -15 -58 -131
-83 -552 -117 -143 -11 -282 -24 -310 -28 -47 -7 -50 -9 -55 -42 -4 -19 -19
-54 -34 -77 -33 -49 -36 -85 -11 -113 23 -25 47 -25 70 0 18 19 17 20 -21 17
-37 -2 -39 0 -42 30 -2 25 2 35 21 48 30 20 68 8 114 -37 34 -33 44 -34 186
-12 22 4 37 2 37 -4 0 -6 -20 -35 -45 -66 -64 -78 -95 -144 -95 -201 0 -55 2
-55 105 -11 136 58 223 18 241 -112 11 -86 13 -87 166 -86 117 0 142 3 206 26
117 42 172 95 158 153 -16 63 -144 149 -286 193 -36 11 -112 27 -170 36 -180
29 -231 55 -215 106 9 28 59 55 181 97 92 31 122 37 195 38 78 0 91 -3 150
-33 134 -71 322 -233 478 -417 208 -244 235 -313 236 -610 0 -182 -12 -260
-46 -291 -25 -22 -24 -56 2 -124 52 -136 -15 -455 -147 -694 -100 -180 -310
-375 -508 -471 -236 -115 -517 -169 -1168 -226 -247 -22 -260 -22 -335 -6
-188 41 -344 153 -455 328 -104 164 -182 444 -271 974 -76 449 -88 645 -50
817 36 166 57 189 131 145 110 -64 177 -91 237 -95 48 -3 64 -1 75 13 21 25 1
48 -55 62 -27 7 -58 22 -69 33 -19 19 -20 22 -5 48 14 24 20 27 70 27 46 -1
62 -6 109 -39 63 -43 77 -43 179 4 35 17 68 30 73 30 6 0 7 -16 3 -40 -7 -42
-6 -44 20 -34 33 13 48 65 53 179 5 149 -11 352 -29 370 -8 8 -86 24 -194 39
-100 14 -205 33 -235 42 -77 22 -136 59 -144 88 -10 39 38 186 126 386 45 102
90 212 100 244 25 81 49 116 121 182 152 138 403 273 610 329 66 18 62 17 102
1z m-1276 -594 c-23 -61 -123 -242 -145 -263 -46 -43 -72 7 -38 74 32 62 172
230 185 221 4 -2 4 -17 -2 -32z m374 -761 c130 -52 237 -125 237 -162 0 -41
-49 -51 -173 -37 -126 14 -159 5 -238 -68 -69 -63 -107 -71 -135 -29 -31 47 6
204 64 269 57 64 133 72 245 27z m2944 -1368 c5 -16 8 -71 8 -123 0 -73 -4
-104 -19 -133 -49 -99 -166 -76 -166 33 0 16 17 62 38 103 72 139 122 182 139
120z m-1451 -2087 c3 -8 -10 -61 -30 -117 -62 -184 -92 -375 -106 -674 -10
-198 -18 -252 -47 -310 -9 -16 -82 -97 -163 -180 -166 -169 -236 -259 -246
-313 -11 -66 -24 -97 -54 -130 -16 -18 -34 -52 -41 -75 -19 -72 -43 -120 -84
-171 -109 -134 -121 -159 -103 -223 13 -49 64 -96 151 -140 92 -46 184 -137
217 -215 14 -32 28 -58 31 -58 4 0 9 34 11 76 7 109 51 161 97 115 32 -32 46
-94 32 -140 -33 -112 -236 -329 -555 -594 -184 -153 -224 -179 -213 -137 3 11
3 20 1 20 -3 0 -36 -29 -74 -65 -90 -85 -191 -135 -270 -135 -67 0 -177 -23
-222 -46 -65 -33 -117 -85 -182 -183 -117 -174 -190 -217 -198 -116 -3 37 -6
40 -35 43 -33 3 -49 -8 -86 -62 -21 -31 -75 -43 -126 -27 -93 28 -211 149
-225 233 -4 22 -17 45 -31 57 -14 10 -25 28 -25 39 0 29 64 107 229 277 257
265 357 384 481 570 107 161 166 231 345 415 89 91 186 199 217 240 62 83 123
188 115 196 -19 19 -142 -83 -182 -152 -42 -71 -123 -96 -140 -43 -10 30 47
139 155 302 133 199 169 224 250 171 21 -14 47 -24 57 -22 22 4 57 88 78 188
40 190 47 297 52 796 3 270 8 496 12 502 4 7 102 15 271 22 377 15 535 33 596
68 25 15 34 15 40 -2z m1638 -942 c24 -9 19 -40 -11 -64 -35 -27 -260 -140
-279 -140 -26 0 -28 32 -5 75 47 88 121 134 218 135 34 0 68 -3 77 -6z m569
-195 c34 -17 74 -42 89 -56 27 -26 28 -53 1 -53 -27 0 -173 111 -173 131 0 15
18 10 83 -22z m-2559 -518 c3 -5 -3 -35 -14 -67 -38 -108 -60 -281 -44 -339 3
-11 18 -28 35 -37 62 -36 22 -108 -61 -108 -37 0 -85 23 -94 45 -11 30 -6 145
10 222 22 109 62 201 107 250 40 44 52 50 61 34z m1493 -257 c7 -19 -29 -58
-82 -89 -95 -56 -127 -51 -73 11 68 77 141 114 155 78z m345 -97 c249 -126
348 -170 515 -227 138 -48 164 -61 197 -101 21 -24 26 -38 21 -58 -9 -36 -24
-51 -50 -51 -27 0 -285 127 -562 276 -316 170 -403 226 -403 261 0 32 68 7
282 -100z m-635 -433 c17 -44 -145 -313 -242 -402 -60 -55 -98 -72 -124 -55
-37 25 5 131 62 154 33 14 81 71 167 197 78 115 121 148 137 106z m1509 -29
c22 -33 6 -72 -32 -81 -33 -8 -56 5 -68 39 -21 58 66 94 100 42z m-1826 -540
c10 -12 8 -22 -13 -54 -34 -52 -132 -133 -154 -129 -29 5 -29 76 -1 118 46 68
136 103 168 65z m2570 -105 c31 -31 24 -90 -10 -90 -19 0 -70 53 -70 74 0 37
49 47 80 16z m-2700 -185 c0 -57 -29 -133 -88 -231 -50 -83 -78 -107 -66 -57
17 73 69 224 95 276 36 71 59 76 59 12z m-66 -417 c17 -23 20 -110 7 -158 -13
-46 -37 -36 -60 25 -23 62 -27 125 -9 143 19 19 45 14 62 -10z m-3590 -874 c3
-9 6 -49 6 -89 0 -81 -6 -105 -25 -105 -25 0 -31 164 -8 203 7 12 21 8 27 -9z
m-24 -913 c25 -49 -2 -172 -30 -131 -11 16 -14 109 -4 134 8 21 21 20 34 -3z
m222 -556 c28 -57 15 -95 -31 -95 -30 0 -61 22 -61 43 1 27 40 97 55 97 8 0
25 -20 37 -45z m132 -331 c18 -46 -6 -126 -32 -110 -13 8 -17 108 -5 119 11
12 31 7 37 -9z"/>
<path d="M3140 10036 c0 -9 83 -57 93 -53 20 6 -40 57 -68 57 -14 0 -25 -2
-25 -4z"/>
<path d="M2960 9751 c-14 -5 -57 -22 -97 -40 -93 -41 -135 -41 -165 -1 -28 38
-46 38 -86 -3 -35 -36 -33 -47 9 -47 43 0 45 -19 5 -57 -57 -54 -60 -110 -10
-160 39 -39 101 -29 195 31 96 61 162 81 270 81 95 0 128 -14 153 -64 20 -39
44 -46 76 -23 34 25 60 79 60 124 0 54 -28 118 -51 118 -21 0 -23 -7 -20 -62
2 -33 0 -38 -26 -45 -58 -15 -103 10 -103 58 0 33 -23 59 -53 59 -12 0 -39 9
-60 20 -39 21 -56 23 -97 11z"/>
<path d="M4592 9628 c-7 -7 -12 -20 -12 -30 0 -14 8 -18 35 -18 28 0 36 -4 41
-24 17 -71 -21 -94 -95 -57 -55 29 -66 26 -41 -9 12 -17 24 -49 27 -70 3 -22
7 -40 8 -40 1 0 22 7 46 15 126 45 175 155 97 220 -32 27 -86 33 -106 13z"/>
<path d="M3000 9120 c-19 -4 -71 -17 -115 -29 -47 -12 -103 -20 -135 -19 -48
3 -64 -2 -114 -32 -69 -41 -166 -129 -166 -150 0 -27 39 -79 81 -110 65 -47
87 -42 177 44 102 97 145 118 250 124 146 8 284 -24 354 -83 18 -15 42 -25 62
-25 35 0 198 78 231 110 19 20 19 20 -56 20 -61 0 -85 5 -125 25 -34 17 -58
23 -79 19 -23 -4 -41 2 -75 25 -34 23 -52 29 -75 25 -22 -4 -41 2 -75 24 -51
33 -89 42 -140 32z"/>
<path d="M2743 8720 c-30 -12 -29 -24 3 -49 44 -35 146 -27 271 21 l58 22 -50
7 c-72 10 -256 9 -282 -1z"/>
<path d="M1346 5190 c-39 -43 -50 -76 -15 -44 28 25 62 74 56 80 -2 2 -21 -14
-41 -36z"/>
<path d="M566 992 c-3 -6 -1 -14 5 -17 15 -10 25 3 12 16 -7 7 -13 7 -17 1z"/>
<path d="M535 880 c-4 -6 11 -10 37 -10 31 0 39 3 28 10 -20 13 -57 13 -65 0z"/>
</g>
</svg>
